<svg preserveAspectRatio="none" width="100%" height="100%" overflow="visible" style="display: block;" viewBox="0 0 18.0008 22" fill="none" xmlns="http://www.w3.org/2000/svg">
<path id="Solid" fill-rule="evenodd" clip-rule="evenodd" d="M0.0449928 18.2518C0.090918 18.8139 0.189482 19.3306 0.436773 19.816C0.820267 20.5686 1.43219 21.1805 2.18484 21.564C2.67017 21.8113 3.18688 21.9099 3.74897 21.9558C4.29016 22 4.95452 22 5.75947 22H13.8394C14.3665 22 14.8213 22 15.1958 21.9694C15.5912 21.9371 15.9844 21.8658 16.3628 21.673C16.9273 21.3854 17.3862 20.9265 17.6738 20.362C17.8666 19.9836 17.9379 19.5904 17.9702 19.195C17.9977 18.8593 18.0008 18.4593 18.0008 18C18.0008 13.3871 18.0008 8.77429 18.0008 4.16144C18.0008 3.6343 18.0008 3.17954 17.9702 2.80497C17.9379 2.40963 17.8666 2.01641 17.6738 1.63803C17.3862 1.07354 16.9273 0.614603 16.3628 0.326983C15.9844 0.134189 15.5912 0.0628731 15.1958 0.0305721C14.8213 -3.08603e-05 14.3665 -1.61994e-05 13.8394 7.9706e-07H5.7595C4.95456 -1.05962e-05 4.29016 -2.00011e-05 3.74897 0.0441963C3.18688 0.0901215 2.67017 0.188686 2.18484 0.435977C1.43219 0.81947 0.820267 1.43139 0.436773 2.18404C0.189482 2.66938 0.090918 3.18608 0.0449928 3.74818C0.000775732 4.28937 0.000785903 4.95372 0.000798227 5.75869V16.2413C0.000787954 16.9123 -0.00961516 17.5835 0.0449928 18.2518ZM15.9769 19.0322C15.9547 19.3038 15.917 19.4045 15.8918 19.454C15.7959 19.6422 15.643 19.7951 15.4548 19.891C15.4053 19.9162 15.3046 19.9539 15.033 19.9761C14.7496 19.9992 14.3774 20 13.8008 20H5.8008C4.94422 20 4.36193 19.9992 3.91184 19.9625C3.47342 19.9266 3.24922 19.8617 3.09282 19.782C2.71649 19.5903 2.41053 19.2843 2.21879 18.908C2.03961 18.5563 1.95101 18.2518 2.01759 17.7397C2.14519 16.7581 2.98446 16 4.0008 16H16.0008C16.0008 17.005 16.0588 18.0295 15.9769 19.0322Z" fill="var(--fill-0, #0A0A0A)" style="fill:#0A0A0A;fill:color(display-p3 0.0392 0.0392 0.0392);fill-opacity:1;"/>
</svg>
