<svg preserveAspectRatio="none" width="100%" height="100%" overflow="visible" style="display: block;" viewBox="0 0 21 22" fill="none" xmlns="http://www.w3.org/2000/svg">
<g id="Solid">
<path fill-rule="evenodd" clip-rule="evenodd" d="M20.7071 14.7929C21.0976 15.1834 21.0976 15.8166 20.7071 16.2071L16.2071 20.7071C15.8166 21.0976 15.1834 21.0976 14.7929 20.7071L12.7929 18.7071C12.4024 18.3166 12.4024 17.6834 12.7929 17.2929C13.1834 16.9024 13.8166 16.9024 14.2071 17.2929L15.5 18.5858L19.2929 14.7929C19.6834 14.4024 20.3166 14.4024 20.7071 14.7929Z" fill="black" style="fill:black;fill-opacity:1;"/>
<path fill-rule="evenodd" clip-rule="evenodd" d="M15 1C15 0.447715 14.5523 0 14 0C13.4477 0 13 0.447715 13 1V2H7V1C7 0.447715 6.55229 0 6 0C5.44772 0 5 0.447715 5 1V2.00163C4.52454 2.00489 4.10898 2.01472 3.74818 2.04419C3.18608 2.09012 2.66938 2.18868 2.18404 2.43597C1.43139 2.81947 0.819469 3.43139 0.435976 4.18404C0.188685 4.66937 0.0901205 5.18608 0.0441953 5.74817C-2.14726e-05 6.28936 -1.15857e-05 6.95373 3.92572e-07 7.75869V16.2413C-1.15857e-05 17.0463 -2.14726e-05 17.7106 0.0441953 18.2518C0.0901205 18.8139 0.188685 19.3306 0.435976 19.816C0.819469 20.5686 1.43139 21.1805 2.18404 21.564C2.66938 21.8113 3.18608 21.9099 3.74818 21.9558C4.28937 22 4.95372 22 5.75868 22H11.326C11.9318 22 12.2347 22 12.375 21.8802C12.4967 21.7763 12.5613 21.6203 12.5487 21.4608C12.5342 21.2769 12.32 21.0627 11.8917 20.6343L11.3787 20.1213C10.2071 18.9497 10.2071 17.0503 11.3787 15.8787C12.5095 14.7478 14.3186 14.7085 15.4966 15.7608L17.8787 13.3787C18.2615 12.9959 18.7219 12.7382 19.2093 12.6055C19.5544 12.5116 19.727 12.4647 19.8055 12.4041C19.8891 12.3396 19.9219 12.2966 19.9622 12.199C20 12.1074 20 11.9716 20 11.7V7.75868C20 6.95372 20 6.28936 19.9558 5.74817C19.9099 5.18608 19.8113 4.66937 19.564 4.18404C19.1805 3.43139 18.5686 2.81947 17.816 2.43597C17.3306 2.18868 16.8139 2.09012 16.2518 2.04419C15.891 2.01472 15.4755 2.00489 15 2.00163V1ZM5 5V4.00176C4.55447 4.00489 4.20463 4.01357 3.91104 4.03755C3.47262 4.07337 3.24842 4.1383 3.09202 4.21799C2.7157 4.40973 2.40974 4.7157 2.21799 5.09202C2.1383 5.24842 2.07337 5.47262 2.03755 5.91104C2.00078 6.36113 2 6.94342 2 7.8V8H18V7.8C18 6.94342 17.9992 6.36113 17.9624 5.91104C17.9266 5.47262 17.8617 5.24842 17.782 5.09202C17.5903 4.7157 17.2843 4.40973 16.908 4.21799C16.7516 4.1383 16.5274 4.07337 16.089 4.03755C15.7954 4.01357 15.4455 4.00489 15 4.00176V5C15 5.55228 14.5523 6 14 6C13.4477 6 13 5.55228 13 5V4H7V5C7 5.55228 6.55229 6 6 6C5.44772 6 5 5.55228 5 5Z" fill="var(--fill-0, #0A0A0A)" style="fill:#0A0A0A;fill:color(display-p3 0.0392 0.0392 0.0392);fill-opacity:1;"/>
</g>
</svg>
