<svg preserveAspectRatio="none" width="100%" height="100%" overflow="visible" style="display: block;" viewBox="0 0 200 200" fill="none" xmlns="http://www.w3.org/2000/svg">
<g id="Frame">
<path id="Vector" d="M122.479 150.089V185.488L93.0105 168.461V133.063L108.922 142.249L122.479 150.089Z" stroke="var(--stroke-0, #565656)" style="stroke:#565656;stroke:color(display-p3 0.3390 0.3390 0.3390);stroke-opacity:1;" stroke-width="1.76991" stroke-linecap="round" stroke-linejoin="round"/>
<path id="Vector_2" d="M166.425 124.707V160.106L159.097 155.876V128.938L145.54 121.114L144.177 120.318L136.956 116.159V107.699L144.177 111.858L152.867 116.884L166.425 124.707Z" stroke="var(--stroke-0, #565656)" style="stroke:#565656;stroke:color(display-p3 0.3390 0.3390 0.3390);stroke-opacity:1;" stroke-width="1.76991" stroke-linecap="round" stroke-linejoin="round"/>
<path id="Vector_3" d="M136.851 90.7267V116.09L129.63 111.93L128.267 112.709L120.939 116.939L93.0103 133.063V151.435L78.2669 159.948V124.55L114.709 103.505L136.851 90.7267Z" stroke="var(--stroke-0, #565656)" style="stroke:#565656;stroke:color(display-p3 0.3390 0.3390 0.3390);stroke-opacity:1;" stroke-width="1.76991" stroke-linecap="round" stroke-linejoin="round"/>
<path id="Vector_4" d="M114.602 52.5126V77.8754L107.381 73.7162L106.036 74.4949L98.7086 78.725L48.7794 107.539V125.929L34.0535 134.424V99.0259L92.4606 65.2914L114.602 52.5126Z" stroke="var(--stroke-0, #565656)" style="stroke:#565656;stroke:color(display-p3 0.3390 0.3390 0.3390);stroke-opacity:1;" stroke-width="1.76991" stroke-linecap="round" stroke-linejoin="round"/>
<path id="Vector_5" d="M195.717 107.806L166.425 124.709L152.867 116.886L144.177 111.859L136.956 107.7L144.177 103.523L157.558 95.8062L166.248 90.7796L173.469 94.9566L195.717 107.806Z" fill="var(--fill-0, #262626)" stroke="var(--stroke-0, #565656)" style="fill:#262626;fill:color(display-p3 0.1490 0.1490 0.1490);fill-opacity:1;stroke:#565656;stroke:color(display-p3 0.3390 0.3390 0.3390);stroke-opacity:1;" stroke-width="1.76991" stroke-linecap="round" stroke-linejoin="round"/>
<path id="Vector_6" d="M151.222 31.3623L121.93 48.2826L92.4606 31.2561L121.753 14.3534L151.222 31.3623Z" fill="var(--fill-0, #262626)" stroke="var(--stroke-0, #565656)" style="fill:#262626;fill:color(display-p3 0.1490 0.1490 0.1490);fill-opacity:1;stroke:#565656;stroke:color(display-p3 0.3390 0.3390 0.3390);stroke-opacity:1;" stroke-width="1.76991" stroke-linecap="round" stroke-linejoin="round"/>
<path id="Vector_7" d="M195.717 107.806V143.205L166.425 160.107V124.709L195.717 107.806Z" stroke="var(--stroke-0, #565656)" style="stroke:#565656;stroke:color(display-p3 0.3390 0.3390 0.3390);stroke-opacity:1;" stroke-width="1.76991" stroke-linecap="round" stroke-linejoin="round"/>
<path id="Vector_8" d="M159.097 128.939L136.955 141.736L122.477 150.09L108.92 142.249L93.0084 133.063L120.938 116.939L128.265 112.709L129.628 111.93L136.849 116.09L136.955 116.16L144.177 120.32L145.54 121.116L159.097 128.939Z" fill="var(--fill-0, #262626)" stroke="var(--stroke-0, #565656)" style="fill:#262626;fill:color(display-p3 0.1490 0.1490 0.1490);fill-opacity:1;stroke:#565656;stroke:color(display-p3 0.3390 0.3390 0.3390);stroke-opacity:1;" stroke-width="1.76991" stroke-linecap="round" stroke-linejoin="round"/>
<path id="Vector_9" d="M173.469 69.5923V94.9551L166.248 90.7781L157.558 95.8047L144.177 103.521V86.4949L173.469 69.5923Z" stroke="var(--stroke-0, #565656)" style="stroke:#565656;stroke:color(display-p3 0.3390 0.3390 0.3390);stroke-opacity:1;" stroke-width="1.76991" stroke-linecap="round" stroke-linejoin="round"/>
<path id="Vector_10" d="M144.178 86.4953V103.522L136.957 107.699V116.159L136.851 116.088V90.7254L123.293 82.9024L121.93 82.106L114.709 77.9467V69.4865L121.93 73.6458L130.62 78.6723L144.178 86.4953Z" stroke="var(--stroke-0, #565656)" style="stroke:#565656;stroke:color(display-p3 0.3390 0.3390 0.3390);stroke-opacity:1;" stroke-width="1.76991" stroke-linecap="round" stroke-linejoin="round"/>
<path id="Vector_11" d="M151.221 31.3639V56.7445L143.999 52.5675L135.309 57.5763L121.928 65.3108V48.2843L151.221 31.3639Z" stroke="var(--stroke-0, #565656)" style="stroke:#565656;stroke:color(display-p3 0.3390 0.3390 0.3390);stroke-opacity:1;" stroke-width="1.76991" stroke-linecap="round" stroke-linejoin="round"/>
<path id="Vector_12" d="M173.47 69.5941L144.178 86.4967L130.62 78.6737L121.93 73.6472L114.709 69.4879L121.93 65.3109L135.311 57.5764L144.001 52.5675L151.222 56.7445L173.47 69.5941Z" fill="var(--fill-0, #262626)" stroke="var(--stroke-0, #565656)" style="fill:#262626;fill:color(display-p3 0.1490 0.1490 0.1490);fill-opacity:1;stroke:#565656;stroke:color(display-p3 0.3390 0.3390 0.3390);stroke-opacity:1;" stroke-width="1.76991" stroke-linecap="round" stroke-linejoin="round"/>
<path id="Vector_13" d="M121.93 48.2827V65.3092L114.709 69.4862V77.9464L114.602 77.8756V52.5127L92.4606 39.7163V31.2561L121.93 48.2827Z" stroke="var(--stroke-0, #565656)" style="stroke:#565656;stroke:color(display-p3 0.3390 0.3390 0.3390);stroke-opacity:1;" stroke-width="1.76991" stroke-linecap="round" stroke-linejoin="round"/>
<path id="Vector_14" d="M114.602 52.5144L92.4601 65.2932L34.053 99.0277L4.56645 82.0011L85.1329 35.4879L92.4601 39.718L114.602 52.5144Z" fill="var(--fill-0, #262626)" stroke="var(--stroke-0, #565656)" style="fill:#262626;fill:color(display-p3 0.1490 0.1490 0.1490);fill-opacity:1;stroke:#565656;stroke:color(display-p3 0.3390 0.3390 0.3390);stroke-opacity:1;" stroke-width="1.76991" stroke-linecap="round" stroke-linejoin="round"/>
<path id="Vector_15" d="M34.053 99.0273V134.426L4.56645 117.399V82.0007L34.053 99.0273Z" stroke="var(--stroke-0, #565656)" style="stroke:#565656;stroke:color(display-p3 0.3390 0.3390 0.3390);stroke-opacity:1;" stroke-width="1.76991" stroke-linecap="round" stroke-linejoin="round"/>
<path id="Vector_16" d="M136.851 90.7251L114.709 103.504L78.2667 124.548L64.709 116.725L48.7798 107.539L98.709 78.7251L106.036 74.495L107.382 73.7162L114.603 77.8755L114.709 77.9463L121.93 82.1056L123.293 82.9021L136.851 90.7251Z" fill="var(--fill-0, #262626)" stroke="var(--stroke-0, #565656)" style="fill:#262626;fill:color(display-p3 0.1490 0.1490 0.1490);fill-opacity:1;stroke:#565656;stroke:color(display-p3 0.3390 0.3390 0.3390);stroke-opacity:1;" stroke-width="1.76991" stroke-linecap="round" stroke-linejoin="round"/>
<path id="Vector_17" d="M78.2667 124.549V159.947L48.7798 142.938V107.54L64.709 116.726L78.2667 124.549Z" stroke="var(--stroke-0, #565656)" style="stroke:#565656;stroke:color(display-p3 0.3390 0.3390 0.3390);stroke-opacity:1;" stroke-width="1.76991" stroke-linecap="round" stroke-linejoin="round"/>
<path id="Vector_18" d="M159.098 128.939V164.337L122.478 185.487V150.089L136.956 141.735L159.098 128.939Z" stroke="var(--stroke-0, #565656)" style="stroke:#565656;stroke:color(display-p3 0.3390 0.3390 0.3390);stroke-opacity:1;" stroke-width="1.76991" stroke-linecap="round" stroke-linejoin="round"/>
</g>
</svg>
