<svg preserveAspectRatio="none" width="100%" height="100%" overflow="visible" style="display: block;" viewBox="0 0 22 20" fill="none" xmlns="http://www.w3.org/2000/svg">
<path id="Solid" fill-rule="evenodd" clip-rule="evenodd" d="M8.83855 7.43003e-07H5.16146C4.63434 -1.54745e-05 4.17953 -2.94652e-05 3.80497 0.0305728C3.40963 0.0628738 3.01641 0.13419 2.63803 0.326984C2.07354 0.614604 1.6146 1.07355 1.32698 1.63803C1.13419 2.01641 1.06287 2.40963 1.03057 2.80498C0.999968 3.17955 0.999983 3.63431 1 4.16146L1 18C0.447715 18 0 18.4477 0 19C0 19.5523 0.447715 20 1 20H21C21.5523 20 22 19.5523 22 19C22 18.4477 21.5523 18 21 18V12.1615C21 11.6343 21 11.1796 20.9694 10.805C20.9371 10.4096 20.8658 10.0164 20.673 9.63803C20.3854 9.07355 19.9265 8.6146 19.362 8.32698C18.9836 8.13419 18.5904 8.06287 18.195 8.03057C17.8205 7.99997 17.3657 7.99998 16.8385 8L13 8V4.16145C13 3.63431 13 3.17955 12.9694 2.80498C12.9371 2.40963 12.8658 2.01641 12.673 1.63803C12.3854 1.07355 11.9265 0.614604 11.362 0.326984C10.9836 0.13419 10.5904 0.0628738 10.195 0.0305728C9.82048 -2.94652e-05 9.36566 -1.54745e-05 8.83855 7.43003e-07ZM4 5C4 4.44772 4.44772 4 5 4H9C9.55228 4 10 4.44772 10 5C10 5.55229 9.55228 6 9 6H5C4.44772 6 4 5.55229 4 5ZM4 9C4 8.44772 4.44772 8 5 8H9C9.55228 8 10 8.44772 10 9C10 9.55229 9.55228 10 9 10H5C4.44772 10 4 9.55229 4 9ZM5 12C4.44772 12 4 12.4477 4 13C4 13.5523 4.44772 14 5 14H9C9.55228 14 10 13.5523 10 13C10 12.4477 9.55228 12 9 12H5Z" fill="var(--fill-0, #0A0A0A)" style="fill:#0A0A0A;fill:color(display-p3 0.0392 0.0392 0.0392);fill-opacity:1;"/>
</svg>
