<svg preserveAspectRatio="none" width="100%" height="100%" overflow="visible" style="display: block;" viewBox="0 0 35.5201 24" fill="none" xmlns="http://www.w3.org/2000/svg">
<g id="logomark">
<path id="Vector" d="M23.5201 19.2C27.4965 19.2 30.7201 15.9764 30.7201 12C30.7201 8.02356 27.4965 4.8 23.5201 4.8C19.7881 4.8 16.7194 7.63926 16.3561 11.2755C14.885 10.6102 13.2958 10.2125 11.6684 10.1079C12.5757 4.37947 17.5364 0 23.5201 0C30.1475 0 35.5201 5.37259 35.5201 12C35.5201 18.3857 30.5322 23.6064 24.24 23.9788V24H16.3317V22.9527C16.3317 21.5922 15.7706 20.2693 14.7423 19.2802C13.711 18.2882 12.2945 17.7164 10.8 17.7164C9.30552 17.7164 7.88898 18.2882 6.8577 19.2802C5.82938 20.2693 5.26829 21.5922 5.26829 22.9527V24H0V22.9271C0 20.1223 1.16402 17.4544 3.20005 15.5039C5.17093 13.6158 7.80282 12.5461 10.5427 12.483C10.6283 12.481 10.7141 12.48 10.8 12.48C10.8665 12.48 10.9329 12.4806 10.9993 12.4818C13.76 12.5311 16.4152 13.6024 18.4 15.5039C19.4995 16.5572 20.3447 17.8197 20.8895 19.2H23.5201Z" fill="var(--fill-0, #0A0A0A)" style="fill:#0A0A0A;fill:color(display-p3 0.0392 0.0392 0.0392);fill-opacity:1;"/>
<path id="Vector_2" d="M13.006 20.9547C13.5911 21.4635 13.9198 22.1536 13.9198 22.8732V24H7.67981V22.8732C7.67981 22.1536 8.00855 21.4635 8.59361 20.9547C9.17873 20.4458 9.97235 20.16 10.7998 20.16C11.6273 20.16 12.4209 20.4458 13.006 20.9547Z" fill="var(--fill-0, #0A0A0A)" style="fill:#0A0A0A;fill:color(display-p3 0.0392 0.0392 0.0392);fill-opacity:1;"/>
<path id="Vector_3" d="M26.2692 10.8218C25.4016 10.8218 24.6983 10.1185 24.6983 9.25091V8.85815C24.6983 8.20751 24.1708 7.67999 23.5201 7.67999C22.8694 7.67999 22.3419 8.20745 22.3419 8.85815V9.25091C22.3419 10.1185 21.6386 10.8218 20.771 10.8218H20.3782C19.7276 10.8218 19.2001 11.3493 19.2001 12C19.2001 12.6507 19.7276 13.1782 20.3782 13.1782H20.771C21.6386 13.1782 22.3419 13.8815 22.3419 14.7491V15.1418C22.3419 15.7925 22.8694 16.32 23.5201 16.32C24.1708 16.32 24.6983 15.7925 24.6983 15.1418V14.7491C24.6983 13.8815 25.4016 13.1782 26.2692 13.1782H26.6619C27.3126 13.1782 27.8401 12.6507 27.8401 12C27.8401 11.3493 27.3126 10.8218 26.6619 10.8218H26.2692Z" fill="var(--fill-0, #0A0A0A)" style="fill:#0A0A0A;fill:color(display-p3 0.0392 0.0392 0.0392);fill-opacity:1;"/>
<path id="Vector_4" d="M6.72006 1.92002C6.72006 2.98039 7.57968 3.83999 8.64006 3.83999H9.12C9.9153 3.83999 10.56 4.48471 10.56 5.27999C10.56 6.0753 9.9153 6.72 9.12 6.72H8.64006C7.57968 6.72 6.72006 7.57962 6.72006 8.63994V9.12C6.72006 9.9153 6.07536 10.56 5.28007 10.56C4.48478 10.56 3.84007 9.9153 3.84007 9.12V8.64C3.84007 7.57962 2.98045 6.72 1.92007 6.72H1.44C0.644712 6.72 0 6.0753 0 5.27999C0 4.48471 0.644712 3.83999 1.44 3.83999H1.92007C2.98045 3.83999 3.84007 2.98039 3.84007 1.92V1.44C3.84007 0.644712 4.48478 0 5.28007 0C6.07536 0 6.72006 0.644712 6.72006 1.44V1.92002Z" fill="var(--fill-0, #0A0A0A)" style="fill:#0A0A0A;fill:color(display-p3 0.0392 0.0392 0.0392);fill-opacity:1;"/>
</g>
</svg>
