<svg preserveAspectRatio="none" width="100%" height="100%" overflow="visible" style="display: block;" viewBox="0 0 19.739 22" fill="none" xmlns="http://www.w3.org/2000/svg">
<g id="Solid">
<path d="M16.739 1C16.739 0.447715 16.2913 0 15.739 0C15.1867 0 14.739 0.447715 14.739 1V3H12.739C12.1867 3 11.739 3.44772 11.739 4C11.739 4.55228 12.1867 5 12.739 5H14.739V7C14.739 7.55228 15.1867 8 15.739 8C16.2913 8 16.739 7.55228 16.739 7V5H18.739C19.2913 5 19.739 4.55228 19.739 4C19.739 3.44772 19.2913 3 18.739 3H16.739V1Z" fill="var(--fill-0, #0A0A0A)" style="fill:#0A0A0A;fill:color(display-p3 0.0392 0.0392 0.0392);fill-opacity:1;"/>
<path d="M12.7447 0.813338C12.7495 0.734765 12.7082 0.660421 12.6365 0.627837C11.7351 0.217969 10.7483 0 9.739 0C7.88248 0 6.102 0.737498 4.78925 2.05025C3.47649 3.36301 2.739 5.14348 2.739 7C2.739 9.91267 2.00699 11.8439 1.23961 13.0771L1.22782 13.0961C0.870494 13.6703 0.588015 14.1243 0.397587 14.4547C0.302167 14.6202 0.215234 14.7797 0.15087 14.9215C0.118741 14.9922 0.0827996 15.079 0.0547081 15.1733C0.0314021 15.2515 -0.0129993 15.4187 0.00364837 15.6223C0.0148373 15.7591 0.0427307 15.9928 0.176883 16.2343C0.311035 16.4758 0.494761 16.623 0.605002 16.7047C0.855295 16.8904 1.14272 16.9329 1.23865 16.947L1.24308 16.9477C1.39049 16.9695 1.55777 16.9804 1.72652 16.9869C2.06169 17 2.52568 17 3.10269 17H16.3748C16.9518 17 17.4163 17 17.7515 16.9869C17.9202 16.9804 18.0875 16.9695 18.2349 16.9477L18.2393 16.947C18.3353 16.9329 18.6227 16.8904 18.873 16.7047C18.9832 16.623 19.167 16.4758 19.3011 16.2343C19.4353 15.9928 19.4632 15.7591 19.4743 15.6223C19.491 15.4187 19.4466 15.2515 19.4233 15.1733C19.3952 15.079 19.3592 14.9922 19.3271 14.9215C19.2628 14.7797 19.1758 14.6202 19.0804 14.4547C18.89 14.1243 18.6076 13.6705 18.2505 13.0965L18.2384 13.0771C17.8616 12.4716 17.4934 11.6979 17.2161 10.7223C17.1171 10.3738 17.0675 10.1996 17.0006 10.1186C16.9228 10.0246 16.8917 10.0031 16.7762 9.96388C16.6767 9.93008 16.4517 9.94961 16.0018 9.98865C15.9152 9.99616 15.8276 10 15.739 10C14.0822 10 12.739 8.65685 12.739 7C11.0822 7 9.73901 5.65685 9.73901 4C9.73901 2.4056 10.9828 1.10171 12.553 1.00567C12.6555 0.999401 12.7384 0.915837 12.7447 0.813338Z" fill="var(--fill-0, #0A0A0A)" style="fill:#0A0A0A;fill:color(display-p3 0.0392 0.0392 0.0392);fill-opacity:1;"/>
<path d="M6.34343 19.3383C6.7089 18.9242 7.34083 18.8848 7.7549 19.2503C8.28436 19.7176 8.97748 20 9.73899 20C10.5005 20 11.1936 19.7176 11.7231 19.2503C12.1372 18.8848 12.7691 18.9242 13.1346 19.3383C13.5 19.7523 13.4606 20.3843 13.0466 20.7497C12.1657 21.5272 11.0064 22 9.73899 22C8.47162 22 7.31225 21.5272 6.43144 20.7497C6.01737 20.3843 5.97797 19.7523 6.34343 19.3383Z" fill="var(--fill-0, #0A0A0A)" style="fill:#0A0A0A;fill:color(display-p3 0.0392 0.0392 0.0392);fill-opacity:1;"/>
</g>
</svg>
