<svg preserveAspectRatio="none" width="100%" height="100%" overflow="visible" style="display: block;" viewBox="0 0 73.8001 24" fill="none" xmlns="http://www.w3.org/2000/svg">
<g id="logotype">
<path id="Vector" d="M69.4423 7.09704L64.2913 0H73.8001L69.4423 7.09704Z" fill="var(--fill-0, white)" style="fill:white;fill-opacity:1;"/>
<path id="Vector_2" d="M58.0583 0.000919062H61.4676L68.2038 9.28164L59.1673 23.9991L49.7465 23.9995L46.9567 20.1547L44.596 24L32.3556 23.9995L29.5657 20.1547L27.2055 23.9991L6.97416 23.9995L0 14.3893L8.83458 0.000919062H16.5587L7.91196 14.0833L10.3273 17.4117L23.5265 17.4112L28.3296 9.5877L26.1535 6.58878H23.3241L18.7225 14.0824L19.7728 15.5294H11.6391L10.811 14.3884L19.6447 0.000919062H29.506L32.0572 3.51588L34.215 0.00183813L50.7688 0.000459532L46.7235 6.58878L37.8944 6.58926L36.2416 9.28116L36.242 9.28164L33.2933 14.0833L35.7086 17.4117H40.917L42.362 15.0589H36.5909L36.0515 14.1807L39.5575 8.47104H54.1301L50.6843 14.0828L53.0996 17.4112H55.4883L60.2916 9.5877L58.1152 6.58878H49.5436L53.5889 0H58.0583V0.000919062Z" fill="var(--fill-0, #151515)" style="fill:#151515;fill:color(display-p3 0.0824 0.0824 0.0824);fill-opacity:1;"/>
</g>
</svg>
