<svg preserveAspectRatio="none" width="100%" height="100%" overflow="visible" style="display: block;" viewBox="0 0 18 22" fill="none" xmlns="http://www.w3.org/2000/svg">
<g id="Solid">
<path fill-rule="evenodd" clip-rule="evenodd" d="M9.99887 0.952273C10 0.976124 10 0.989275 10 1.01558L10 5.43191C9.99997 5.68429 9.99994 5.93008 10.017 6.13824C10.0356 6.36683 10.0797 6.63657 10.218 6.90799C10.4097 7.28432 10.7157 7.59028 11.092 7.78202C11.3634 7.92032 11.6332 7.96439 11.8618 7.98307C12.0699 8.00007 12.3157 8.00004 12.5681 8.00001L16.9845 8.00001C17.0107 8.00001 17.0238 8.00001 17.0477 8.00115C17.5415 8.02471 17.9756 8.45899 17.9989 8.95282C18 8.97664 18 8.98441 18 8.99994V16.2413C18 17.0463 18 17.7106 17.9558 18.2518C17.9099 18.8139 17.8113 19.3306 17.564 19.816C17.1805 20.5686 16.5686 21.1805 15.816 21.564C15.3306 21.8113 14.8139 21.9099 14.2518 21.9558C13.7106 22 13.0463 22 12.2413 22H5.75868C4.95372 22 4.28937 22 3.74818 21.9558C3.18608 21.9099 2.66938 21.8113 2.18404 21.564C1.43139 21.1805 0.819469 20.5686 0.435976 19.816C0.188685 19.3306 0.0901204 18.8139 0.0441952 18.2518C-2.15396e-05 17.7106 -1.16214e-05 17.0463 3.94415e-07 16.2413V5.75869C-1.16214e-05 4.95373 -2.15396e-05 4.28937 0.0441952 3.74818C0.0901204 3.18608 0.188685 2.66938 0.435976 2.18404C0.819469 1.43139 1.43139 0.81947 2.18404 0.435976C2.66938 0.188686 3.18608 0.0901213 3.74818 0.0441961C4.28936 -2.03885e-05 4.95371 -1.0764e-05 5.75866 8.97639e-07H9C9.01559 -5.43489e-06 9.02342 -8.60135e-06 9.04726 0.00111922C9.54105 0.024479 9.97527 0.458495 9.99887 0.952273ZM7.70711 12.2071C8.09763 11.8166 8.09763 11.1834 7.70711 10.7929C7.31658 10.4024 6.68342 10.4024 6.29289 10.7929L3.79289 13.2929C3.40237 13.6834 3.40237 14.3166 3.79289 14.7071L6.29289 17.2071C6.68342 17.5976 7.31658 17.5976 7.70711 17.2071C8.09763 16.8166 8.09763 16.1834 7.70711 15.7929L5.91421 14L7.70711 12.2071ZM11.7071 10.7929C11.3166 10.4024 10.6834 10.4024 10.2929 10.7929C9.90237 11.1834 9.90237 11.8166 10.2929 12.2071L12.0858 14L10.2929 15.7929C9.90237 16.1834 9.90237 16.8166 10.2929 17.2071C10.6834 17.5976 11.3166 17.5976 11.7071 17.2071L14.2071 14.7071C14.5976 14.3166 14.5976 13.6834 14.2071 13.2929L11.7071 10.7929Z" fill="var(--fill-0, #0A0A0A)" style="fill:#0A0A0A;fill:color(display-p3 0.0392 0.0392 0.0392);fill-opacity:1;"/>
<path d="M16.4686 5.92627C16.3484 6 16.2016 6 15.908 5.99999L12.8 5.99995C12.52 5.99995 12.38 5.99994 12.273 5.94545C12.1789 5.89751 12.1024 5.82102 12.0545 5.72694C12 5.61999 12 5.47998 12 5.19996L12 2.09204C12 1.79842 12 1.65161 12.0737 1.53134C12.1779 1.3615 12.4232 1.25996 12.6169 1.30652C12.754 1.33949 12.8497 1.43523 13.041 1.62672L16.3733 4.95904C16.5648 5.15033 16.6605 5.24598 16.6935 5.38313C16.74 5.57684 16.6385 5.82215 16.4686 5.92627Z" fill="var(--fill-0, #0A0A0A)" style="fill:#0A0A0A;fill:color(display-p3 0.0392 0.0392 0.0392);fill-opacity:1;"/>
</g>
</svg>
