<svg preserveAspectRatio="none" width="100%" height="100%" overflow="visible" style="display: block;" viewBox="0 0 19.9448 13.959" fill="none" xmlns="http://www.w3.org/2000/svg">
<g id="Group">
<g id="Mask group">
<mask id="mask0_107_14393" style="mask-type:luminance" maskUnits="userSpaceOnUse" x="0" y="0" width="20" height="14">
<g id="Group_2">
<path id="Vector" d="M0 4.57764e-05H19.9448V13.959H0V4.57764e-05Z" fill="var(--fill-0, white)" style="fill:white;fill-opacity:1;"/>
</g>
</mask>
<g mask="url(#mask0_107_14393)">
<path id="Vector_2" fill-rule="evenodd" clip-rule="evenodd" d="M8.29699 1.52291C8.94033 0.852671 9.83611 0.436776 10.8267 0.436776C12.1435 0.436776 13.2926 1.17108 13.9042 2.26132C14.4516 2.01677 15.0444 1.89072 15.6438 1.89146C18.019 1.89146 19.9446 3.83379 19.9446 6.22992C19.9446 8.62604 18.019 10.5685 15.6438 10.5685C15.3538 10.5685 15.0706 10.5393 14.7966 10.484C14.2579 11.4449 13.231 12.0942 12.0527 12.0942C11.576 12.0949 11.1056 11.9866 10.6772 11.7777C10.1311 13.0625 8.85838 13.9633 7.37548 13.9633C5.83086 13.9633 4.51442 12.9861 4.00947 11.6156C3.78441 11.6631 3.55502 11.687 3.32501 11.6868C1.48602 11.6868 -0.00464612 10.1806 -0.00464612 8.32251C-0.00464612 7.07717 0.665008 5.98994 1.66033 5.40831C1.44945 4.92273 1.34093 4.39889 1.34155 3.86949C1.34155 1.73247 3.07631 -9.53508e-06 5.21618 -9.53508e-06C6.47252 -9.53508e-06 7.58907 0.597226 8.29699 1.52291Z" fill="var(--fill-0, #00A1E0)" style="fill:#00A1E0;fill:color(display-p3 0.0000 0.6314 0.8784);fill-opacity:1;"/>
</g>
</g>
<path id="Vector_3" fill-rule="evenodd" clip-rule="evenodd" d="M2.88563 7.24106C2.8731 7.27376 2.8901 7.28057 2.89413 7.28636C2.93159 7.31348 2.96963 7.33313 3.00804 7.35519C3.21144 7.46287 3.4037 7.49446 3.60454 7.49446C4.01377 7.49446 4.26797 7.27691 4.26797 6.92654V6.91965C4.26797 6.59567 3.981 6.47795 3.71207 6.393L3.67696 6.38164C3.47414 6.31582 3.29911 6.25887 3.29911 6.12524V6.11843C3.29911 6.00401 3.40143 5.91993 3.55998 5.91993C3.73626 5.91993 3.94516 5.9785 4.07988 6.0529C4.07988 6.0529 4.11961 6.07855 4.13405 6.04022C4.14189 6.01947 4.20999 5.83608 4.21724 5.81622C4.22501 5.79474 4.21138 5.77854 4.19738 5.77019C4.04353 5.67644 3.83103 5.61267 3.61107 5.61267L3.57024 5.61281C3.19568 5.61281 2.93416 5.83931 2.93416 6.16343V6.17039C2.93416 6.51197 3.22266 6.62301 3.49291 6.7002L3.5363 6.71368C3.73311 6.77408 3.90309 6.82627 3.90309 6.96473V6.97162C3.90309 7.09843 3.79263 7.19261 3.61473 7.19261C3.54576 7.19261 3.32557 7.19144 3.08764 7.04096C3.05884 7.02417 3.04242 7.01208 3.02021 6.99852C3.00848 6.99141 2.97916 6.97858 2.96641 7.01699L2.88563 7.24106ZM8.87631 7.24106C8.86378 7.27376 8.88078 7.28057 8.88496 7.28636C8.92227 7.31348 8.96039 7.33313 8.99872 7.35519C9.2022 7.46287 9.39446 7.49446 9.59522 7.49446C10.0044 7.49446 10.2587 7.27691 10.2587 6.92654V6.91965C10.2587 6.59567 9.97183 6.47795 9.70283 6.393L9.66772 6.38164C9.4649 6.31582 9.28979 6.25887 9.28979 6.12524V6.11843C9.28979 6.00401 9.39219 5.91993 9.55081 5.91993C9.72701 5.91993 9.93584 5.9785 10.0706 6.0529C10.0706 6.0529 10.1103 6.07855 10.1248 6.04022C10.1326 6.01947 10.2007 5.83608 10.2079 5.81622C10.2158 5.79474 10.2021 5.77854 10.1881 5.77019C10.0342 5.67644 9.82179 5.61267 9.60182 5.61267L9.56092 5.61281C9.18644 5.61281 8.92491 5.83931 8.92491 6.16343V6.17039C8.92491 6.51197 9.21334 6.62301 9.48366 6.7002L9.52698 6.71368C9.72386 6.77408 9.89384 6.82627 9.89384 6.96473V6.97162C9.89384 7.09843 9.78331 7.19261 9.60556 7.19261C9.53644 7.19261 9.31625 7.19144 9.0784 7.04096C9.04959 7.02417 9.03273 7.01259 9.01089 6.99852C9.00349 6.99383 8.96896 6.98034 8.95716 7.01699L8.87631 7.24106ZM12.966 6.5547C12.966 6.7526 12.9291 6.90888 12.8565 7.01904C12.7844 7.12826 12.6755 7.1814 12.5237 7.1814C12.3719 7.1814 12.2637 7.12833 12.1927 7.01919C12.1211 6.90895 12.0847 6.7526 12.0847 6.5547C12.0847 6.35694 12.1211 6.20118 12.1927 6.09211C12.2637 5.984 12.3719 5.93151 12.5237 5.93151C12.6755 5.93151 12.7844 5.98407 12.8565 6.09218C12.9292 6.20118 12.966 6.35694 12.966 6.5547ZM13.3077 6.18769C13.2741 6.07415 13.2218 5.97425 13.1522 5.89091C13.0825 5.80735 12.9944 5.74013 12.8898 5.69146C12.7855 5.64272 12.6623 5.61802 12.5237 5.61802C12.3851 5.61802 12.2619 5.64272 12.1574 5.69146C12.0531 5.74013 11.9648 5.80735 11.8951 5.89105C11.8256 5.97454 11.7732 6.0743 11.7397 6.18769C11.7064 6.30035 11.6894 6.42386 11.6894 6.5547C11.6894 6.68561 11.7064 6.80919 11.7397 6.9217C11.7732 7.03502 11.8255 7.13486 11.8952 7.21849C11.9649 7.3022 12.0534 7.36882 12.1576 7.41632C12.2621 7.46382 12.3853 7.48801 12.5237 7.48801C12.6623 7.48801 12.7852 7.46382 12.8897 7.41632C12.9941 7.36882 13.0824 7.3022 13.1522 7.21849C13.2218 7.13515 13.2741 7.03517 13.3077 6.9217C13.341 6.80897 13.3579 6.68546 13.3579 6.5547C13.3579 6.42401 13.341 6.30043 13.3077 6.18769ZM16.1126 7.1284C16.1014 7.0952 16.069 7.10773 16.069 7.10773C16.0194 7.12672 15.9666 7.14431 15.9102 7.15311C15.8533 7.16205 15.7903 7.16652 15.723 7.16652C15.5578 7.16652 15.4263 7.11734 15.3324 7.02014C15.238 6.92288 15.185 6.76572 15.1856 6.55316C15.1861 6.35994 15.2329 6.21437 15.3168 6.1034C15.3999 5.99316 15.5268 5.93657 15.6956 5.93657C15.8366 5.93657 15.9441 5.95292 16.0568 5.98825C16.0568 5.98825 16.0835 5.9999 16.0964 5.96465C16.1263 5.8816 16.1485 5.82252 16.1804 5.73126C16.1895 5.70524 16.1672 5.69425 16.1591 5.6911C16.1148 5.6738 16.0102 5.64543 15.9313 5.63348C15.8575 5.6222 15.7712 5.61633 15.675 5.61633C15.5315 5.61633 15.4036 5.64089 15.2943 5.68956C15.1851 5.73815 15.0925 5.80529 15.0192 5.88878C14.9458 5.97242 14.8899 6.07232 14.853 6.18564C14.816 6.29837 14.7973 6.4221 14.7973 6.55331C14.7973 6.8366 14.8737 7.06551 15.0245 7.23322C15.1758 7.40151 15.4027 7.48698 15.6989 7.48698C15.8739 7.48698 16.0534 7.45158 16.1827 7.40071C16.1827 7.40071 16.2073 7.38883 16.1966 7.3601L16.1126 7.1284ZM16.7103 6.36493C16.7266 6.25491 16.7568 6.1635 16.8038 6.09211C16.8746 5.984 16.9825 5.9244 17.1343 5.9244C17.2862 5.9244 17.3863 5.98407 17.4584 6.09218C17.506 6.16365 17.5268 6.25887 17.535 6.36507L16.7103 6.36493ZM17.8603 6.12326C17.8312 6.01376 17.7595 5.90315 17.7124 5.85257C17.638 5.77238 17.5651 5.71624 17.4928 5.68523C17.3881 5.64073 17.2754 5.61787 17.1617 5.61802C17.0174 5.61802 16.8862 5.64243 16.7799 5.69227C16.6734 5.74226 16.5839 5.81057 16.5137 5.89545C16.4434 5.98026 16.3907 6.08119 16.3571 6.19568C16.3234 6.30951 16.3064 6.43361 16.3064 6.56467C16.3064 6.69792 16.324 6.82216 16.3588 6.93387C16.3939 7.04653 16.4502 7.14541 16.5263 7.22772C16.6023 7.31033 16.7002 7.37513 16.8171 7.42028C16.9334 7.46536 17.0747 7.48874 17.2368 7.48823C17.5709 7.48713 17.7466 7.41266 17.8192 7.37256C17.832 7.36538 17.8441 7.35299 17.829 7.3173L17.7533 7.10561C17.7418 7.07402 17.7098 7.08545 17.7098 7.08545C17.6269 7.11638 17.5095 7.17158 17.2351 7.17099C17.0558 7.1707 16.923 7.1177 16.8395 7.03495C16.7541 6.95029 16.7122 6.82598 16.7051 6.65035L17.8612 6.65123C17.8612 6.65123 17.8917 6.65094 17.8948 6.62118C17.8961 6.60887 17.9345 6.38369 17.8603 6.12326ZM7.44985 6.36493C7.4662 6.25491 7.4964 6.1635 7.54331 6.09211C7.61426 5.984 7.72201 5.9244 7.87396 5.9244C8.02583 5.9244 8.12588 5.98407 8.19801 6.09218C8.24558 6.16365 8.2664 6.25887 8.27453 6.36507L7.44985 6.36493ZM8.59983 6.12326C8.5708 6.01376 8.49905 5.90315 8.45199 5.85257C8.37759 5.77238 8.3048 5.71624 8.23239 5.68523C8.12768 5.64076 8.01506 5.61789 7.9013 5.61802C7.75697 5.61802 7.62584 5.64243 7.51949 5.69227C7.41298 5.74226 7.32349 5.81057 7.25319 5.89545C7.18305 5.98026 7.13034 6.08119 7.09655 6.19568C7.06291 6.30951 7.04598 6.43361 7.04598 6.56467C7.04598 6.69792 7.0635 6.82216 7.09846 6.93387C7.1335 7.04653 7.18994 7.14541 7.26587 7.22772C7.34196 7.31033 7.43974 7.37513 7.55665 7.42028C7.67305 7.46536 7.81422 7.48874 7.97643 7.48823C8.31045 7.48713 8.48622 7.41266 8.55878 7.37256C8.57154 7.36538 8.58371 7.35299 8.56853 7.3173L8.49296 7.10561C8.48131 7.07402 8.44935 7.08545 8.44935 7.08545C8.36652 7.11638 8.24917 7.17158 7.97467 7.17099C7.79545 7.1707 7.66256 7.1177 7.57908 7.03495C7.49376 6.95029 7.45176 6.82598 7.44465 6.65035L8.60078 6.65123C8.60078 6.65123 8.63128 6.65094 8.63443 6.62118C8.63567 6.60887 8.67408 6.38369 8.59983 6.12326ZM4.9506 7.1221C4.90522 7.08589 4.89892 7.07702 4.88389 7.05349C4.86095 7.01809 4.84922 6.96766 4.84922 6.90309C4.84922 6.80157 4.88294 6.72842 4.95243 6.67931C4.95169 6.67945 5.05211 6.59267 5.28777 6.59575C5.3929 6.59761 5.49778 6.60655 5.60171 6.6225V7.14805H5.60185C5.60185 7.14805 5.45489 7.17964 5.28945 7.18961C5.05431 7.20376 4.94986 7.12188 4.9506 7.1221ZM5.41069 6.30952C5.36378 6.30607 5.30301 6.30438 5.23016 6.30438C5.13113 6.30438 5.03533 6.3167 4.94539 6.34089C4.85509 6.36522 4.77387 6.4029 4.70402 6.45281C4.63421 6.50268 4.5768 6.56794 4.53624 6.64354C4.49527 6.71984 4.47438 6.80948 4.47438 6.90998C4.47438 7.01252 4.49219 7.10136 4.52737 7.17392C4.56179 7.24587 4.61361 7.3081 4.67814 7.35497C4.74243 7.40174 4.82174 7.43604 4.91373 7.457C5.00454 7.47775 5.10745 7.48823 5.21989 7.48823C5.33864 7.48823 5.45672 7.47826 5.57114 7.45898C5.6686 7.44219 5.7657 7.42332 5.86235 7.40239C5.90091 7.39353 5.94342 7.38187 5.94342 7.38187C5.97201 7.37461 5.96981 7.34405 5.96981 7.34405L5.96915 6.28665C5.96915 6.05473 5.90729 5.88292 5.78539 5.7762C5.66408 5.66999 5.48545 5.61633 5.25434 5.61633C5.16756 5.61633 5.02815 5.62806 4.94444 5.64484C4.94444 5.64484 4.692 5.69381 4.58806 5.77524C4.58806 5.77524 4.56519 5.78932 4.57765 5.8212L4.65953 6.0411C4.66972 6.06961 4.6975 6.05986 4.6975 6.05986C4.6975 6.05986 4.70622 6.05642 4.71648 6.05033C4.93887 5.92939 5.22026 5.93298 5.22026 5.93298C5.34516 5.93298 5.4414 5.95827 5.50605 6.00775C5.56916 6.0562 5.60119 6.12913 5.60119 6.28327V6.33216C5.50202 6.3178 5.41069 6.30952 5.41069 6.30952ZM14.7368 5.71382C14.7385 5.70995 14.7394 5.70579 14.7394 5.70158C14.7394 5.69737 14.7386 5.6932 14.737 5.68932C14.7353 5.68543 14.733 5.68191 14.7299 5.67897C14.7269 5.67603 14.7234 5.67372 14.7194 5.67219C14.6997 5.66471 14.6014 5.64396 14.5256 5.63927C14.3803 5.63018 14.2997 5.65467 14.2275 5.68721C14.1558 5.71954 14.0764 5.7718 14.0321 5.83139L14.032 5.69036C14.032 5.67101 14.0183 5.6554 13.9988 5.6554H13.7024C13.6832 5.6554 13.6692 5.67101 13.6692 5.69036V7.41522C13.6692 7.42453 13.6729 7.43345 13.6795 7.44003C13.6861 7.44661 13.695 7.45031 13.7043 7.45033H14.0082C14.0175 7.45031 14.0264 7.4466 14.0329 7.44002C14.0395 7.43344 14.0432 7.42452 14.0432 7.41522V6.5536C14.0432 6.43786 14.0559 6.32256 14.0814 6.25007C14.1064 6.17831 14.1405 6.12114 14.1828 6.08002C14.2228 6.04033 14.2717 6.01086 14.3255 5.99411C14.376 5.97964 14.4282 5.97229 14.4806 5.97227C14.5411 5.97227 14.6077 5.98781 14.6077 5.98781C14.6299 5.9903 14.6423 5.97667 14.6499 5.95658C14.6697 5.90373 14.726 5.74534 14.7368 5.71382Z" fill="var(--fill-0, white)" style="fill:white;fill-opacity:1;"/>
<path id="Vector_4" fill-rule="evenodd" clip-rule="evenodd" d="M11.8857 4.9146C11.8481 4.90326 11.81 4.89421 11.7714 4.88748C11.7195 4.87881 11.6669 4.87474 11.6142 4.87531C11.4051 4.87531 11.2403 4.93439 11.1245 5.05108C11.0096 5.16689 10.9314 5.34332 10.8922 5.57546L10.878 5.65382H10.6155C10.6155 5.65382 10.5835 5.6525 10.5768 5.68746L10.5337 5.92788C10.5307 5.95089 10.5406 5.96526 10.5713 5.96511H10.8269L10.5676 7.41225C10.5473 7.52879 10.5241 7.62466 10.4983 7.6973C10.473 7.76899 10.4482 7.82272 10.4177 7.86171C10.3882 7.89946 10.3602 7.92724 10.3119 7.94344C10.272 7.95685 10.2261 7.96301 10.1758 7.96301C10.1478 7.96301 10.1106 7.95832 10.0831 7.95282C10.0556 7.9474 10.0413 7.94124 10.0207 7.93259C10.0207 7.93259 9.99075 7.92116 9.97895 7.95121C9.96934 7.97576 9.90125 8.16304 9.89319 8.1862C9.88498 8.20907 9.89648 8.2271 9.911 8.23231C9.94501 8.24448 9.9703 8.25225 10.0166 8.26317C10.081 8.27834 10.1352 8.27929 10.186 8.27929C10.2924 8.27929 10.3894 8.26434 10.4698 8.23531C10.5507 8.20607 10.6212 8.15513 10.6835 8.08615C10.7509 8.01175 10.7932 7.93384 10.8338 7.82755C10.8738 7.72222 10.908 7.59146 10.9353 7.43907L11.1958 5.96511H11.5767C11.5767 5.96511 11.6088 5.96629 11.6155 5.93147L11.6586 5.69105C11.6616 5.66804 11.6518 5.65367 11.6208 5.65382H11.2512C11.253 5.64546 11.2698 5.51543 11.3122 5.39302C11.3303 5.34076 11.3644 5.29861 11.3933 5.26966C11.4203 5.24208 11.4535 5.22142 11.4901 5.20941C11.5303 5.19699 11.5722 5.19095 11.6142 5.19152C11.6491 5.19152 11.6832 5.1957 11.7092 5.20112C11.7451 5.20875 11.759 5.21278 11.7684 5.21556C11.8061 5.22707 11.8111 5.21593 11.8185 5.19768L11.9069 4.95492C11.916 4.92882 11.8939 4.91783 11.8857 4.9146ZM6.72002 7.41532C6.72002 7.43467 6.70624 7.45043 6.68689 7.45043H6.38029C6.36086 7.45043 6.34708 7.43467 6.34708 7.41532V4.94751C6.34708 4.92823 6.36086 4.91262 6.38029 4.91262H6.68689C6.70624 4.91262 6.72002 4.92823 6.72002 4.94751V7.41532Z" fill="var(--fill-0, white)" style="fill:white;fill-opacity:1;"/>
</g>
</svg>
