<svg preserveAspectRatio="none" width="100%" height="100%" overflow="visible" style="display: block;" viewBox="0 0 12.4031 12.4031" fill="none" xmlns="http://www.w3.org/2000/svg">
<g id="SVG" clip-path="url(#clip0_140_21728)">
<path id="Vector" fill-rule="evenodd" clip-rule="evenodd" d="M4.06988 0.0778033L4.39546 0.294858L7.88383 2.62044L8.13964 2.79098V3.87625H7.40321L4.65127 5.55842V10.5352L3.76755 9.99253L0.27918 7.86075L0.000109769 7.69021V2.79098L0.255924 2.62044L3.7443 0.294858L4.06988 0.0778033ZM4.06988 4.55067L6.47298 3.0778L4.06988 1.47315L1.66678 3.0778L4.06988 4.55067ZM1.1629 4.13982L3.48848 5.55842V8.45765L1.1629 7.03904V4.13982ZM10.2559 9.30261C10.2301 9.9331 10.1474 10.561 10.0079 11.1863C10.3737 11.0063 10.6913 10.7414 10.934 10.4137C11.1767 10.086 11.3376 9.70508 11.4032 9.30261H10.2559ZM9.1474 11.4266C8.99275 11.4422 8.83693 11.4422 8.68228 11.4266C8.4859 10.7238 8.37479 10.0158 8.34895 9.30261H9.48073C9.44972 10.0158 9.33861 10.7238 9.1474 11.4266ZM10.2559 8.52742C10.2301 7.89692 10.1474 7.26902 10.0079 6.64369C10.3737 6.82374 10.6913 7.08864 10.934 7.41632C11.1767 7.74399 11.3376 8.12495 11.4032 8.52742H10.2559ZM9.48073 8.52742C9.44972 7.81424 9.33861 7.10623 9.1474 6.40338C8.99275 6.38784 8.83693 6.38784 8.68228 6.40338C8.4859 7.10623 8.37479 7.81424 8.34895 8.52742H9.48073ZM7.57375 8.52742C7.59959 7.89692 7.68228 7.26902 7.82182 6.64369C7.45593 6.82374 7.13839 7.08864 6.89567 7.41632C6.65295 7.74399 6.49207 8.12495 6.42647 8.52742H7.57375ZM7.82182 11.1863C7.68228 10.5662 7.59959 9.93827 7.57375 9.30261H6.42647C6.49207 9.70508 6.65295 10.086 6.89567 10.4137C7.13839 10.7414 7.45593 11.0063 7.82182 11.1863ZM8.91484 12.4034C9.84001 12.4034 10.7273 12.0359 11.3815 11.3817C12.0357 10.7275 12.4032 9.84019 12.4032 8.91501C12.4032 7.98984 12.0357 7.10256 11.3815 6.44836C10.7273 5.79416 9.84001 5.42664 8.91484 5.42664C7.98966 5.42664 7.10238 5.79416 6.44819 6.44836C5.79399 7.10256 5.42647 7.98984 5.42647 8.91501C5.42647 9.84019 5.79399 10.7275 6.44819 11.3817C7.10238 12.0359 7.98966 12.4034 8.91484 12.4034Z" fill="var(--fill-0, #4D4D4D)" style="fill:#4D4D4D;fill:color(display-p3 0.3020 0.3020 0.3020);fill-opacity:1;"/>
</g>
<defs>
<clipPath id="clip0_140_21728">
<rect width="12.4031" height="12.4031" fill="white" style="fill:white;fill-opacity:1;"/>
</clipPath>
</defs>
</svg>
