<svg preserveAspectRatio="none" width="100%" height="100%" overflow="visible" style="display: block;" viewBox="0 0 240 240" fill="none" xmlns="http://www.w3.org/2000/svg">
<g id="Frame">
<path id="Vector" d="M133.246 167.703V204.912L101.097 186.345V149.136L133.079 167.61L133.246 167.703Z" stroke="var(--stroke-0, #565656)" style="stroke:#565656;stroke:color(display-p3 0.3390 0.3390 0.3390);stroke-opacity:1;" stroke-width="1.86047" stroke-linecap="round" stroke-linejoin="round"/>
<path id="Vector_2" d="M184.204 108.577V145.786L165.19 156.763V149.246L152.334 141.823L133.172 152.893L133.079 152.837V138.102L151.981 127.181L184.204 108.577Z" stroke="var(--stroke-0, #565656)" style="stroke:#565656;stroke:color(display-p3 0.3390 0.3390 0.3390);stroke-opacity:1;" stroke-width="1.86047" stroke-linecap="round" stroke-linejoin="round"/>
<path id="Vector_3" d="M106.883 34.4189L74.9393 52.8748L87.7951 60.298L106.958 49.2282L126.251 60.3724L139.032 52.9864L106.883 34.4189Z" fill="var(--fill-0, #262626)" stroke="var(--stroke-0, #565656)" style="fill:#262626;fill:color(display-p3 0.1490 0.1490 0.1490);fill-opacity:1;stroke:#565656;stroke:color(display-p3 0.3390 0.3390 0.3390);stroke-opacity:1;" stroke-width="1.86047" stroke-linecap="round" stroke-linejoin="round"/>
<path id="Vector_4" d="M49.5814 104.633L49.4512 104.708L36.8 112.019L4.65118 93.4519L36.5954 75.0146L49.4512 82.4379L30.2884 93.5077L49.4512 104.559L49.5814 104.633Z" fill="var(--fill-0, #262626)" stroke="var(--stroke-0, #565656)" style="fill:#262626;fill:color(display-p3 0.1490 0.1490 0.1490);fill-opacity:1;stroke:#565656;stroke:color(display-p3 0.3390 0.3390 0.3390);stroke-opacity:1;" stroke-width="1.86047" stroke-linecap="round" stroke-linejoin="round"/>
<path id="Vector_5" d="M235.479 108.67L203.535 127.126L190.679 119.703L209.842 108.633L190.549 97.4886L203.33 90.1025L235.479 108.67Z" fill="var(--fill-0, #262626)" stroke="var(--stroke-0, #565656)" style="fill:#262626;fill:color(display-p3 0.1490 0.1490 0.1490);fill-opacity:1;stroke:#565656;stroke:color(display-p3 0.3390 0.3390 0.3390);stroke-opacity:1;" stroke-width="1.86047" stroke-linecap="round" stroke-linejoin="round"/>
<path id="Vector_6" d="M184.205 108.578L151.982 127.182L133.079 138.103L88.1492 112.15L55.9259 93.5451L74.9399 82.5683L87.7957 75.1451L106.958 64.0939L107.051 64.0381L126.251 75.1265L139.033 82.4939L184.205 108.578Z" fill="var(--fill-0, #262626)" stroke="var(--stroke-0, #565656)" style="fill:#262626;fill:color(display-p3 0.1490 0.1490 0.1490);fill-opacity:1;stroke:#565656;stroke:color(display-p3 0.3390 0.3390 0.3390);stroke-opacity:1;" stroke-width="1.86047" stroke-linecap="round" stroke-linejoin="round"/>
<path id="Vector_7" d="M139.032 52.9858V82.4928L126.251 75.1254V60.3719L139.032 52.9858Z" stroke="var(--stroke-0, #565656)" style="stroke:#565656;stroke:color(display-p3 0.3390 0.3390 0.3390);stroke-opacity:1;" stroke-width="1.86047" stroke-linecap="round" stroke-linejoin="round"/>
<path id="Vector_8" d="M126.252 60.3727V75.1262L107.052 64.0378L106.959 64.0936V49.2285L126.252 60.3727Z" stroke="var(--stroke-0, #565656)" style="stroke:#565656;stroke:color(display-p3 0.3390 0.3390 0.3390);stroke-opacity:1;" stroke-width="1.86047" stroke-linecap="round" stroke-linejoin="round"/>
<path id="Vector_9" d="M106.958 49.2285V64.0936L87.7951 75.1448V60.2983L106.958 49.2285Z" stroke="var(--stroke-0, #565656)" style="stroke:#565656;stroke:color(display-p3 0.3390 0.3390 0.3390);stroke-opacity:1;" stroke-width="1.86047" stroke-linecap="round" stroke-linejoin="round"/>
<path id="Vector_10" d="M87.7951 60.2968V75.1433L74.9393 82.5666V52.8735L87.7951 60.2968Z" stroke="var(--stroke-0, #565656)" style="stroke:#565656;stroke:color(display-p3 0.3390 0.3390 0.3390);stroke-opacity:1;" stroke-width="1.86047" stroke-linecap="round" stroke-linejoin="round"/>
<path id="Vector_11" d="M133.079 138.103V152.838L113.879 141.768L101.098 149.136V156.838L55.9259 130.754V93.5449L88.1492 112.15L133.079 138.103Z" stroke="var(--stroke-0, #565656)" style="stroke:#565656;stroke:color(display-p3 0.3390 0.3390 0.3390);stroke-opacity:1;" stroke-width="1.86047" stroke-linecap="round" stroke-linejoin="round"/>
<path id="Vector_12" d="M165.191 149.246V186.455L133.247 204.911V167.701L165.191 149.246Z" stroke="var(--stroke-0, #565656)" style="stroke:#565656;stroke:color(display-p3 0.3390 0.3390 0.3390);stroke-opacity:1;" stroke-width="1.86047" stroke-linecap="round" stroke-linejoin="round"/>
<path id="Vector_13" d="M165.19 149.247L133.246 167.702L133.079 167.609L101.097 149.135L113.879 141.768L133.079 152.837L133.172 152.893L152.335 141.823L165.19 149.247Z" fill="var(--fill-0, #262626)" stroke="var(--stroke-0, #565656)" style="fill:#262626;fill:color(display-p3 0.1490 0.1490 0.1490);fill-opacity:1;stroke:#565656;stroke:color(display-p3 0.3390 0.3390 0.3390);stroke-opacity:1;" stroke-width="1.86047" stroke-linecap="round" stroke-linejoin="round"/>
<path id="Vector_14" d="M235.479 108.669V145.879L203.535 164.335V127.125L235.479 108.669Z" stroke="var(--stroke-0, #565656)" style="stroke:#565656;stroke:color(display-p3 0.3390 0.3390 0.3390);stroke-opacity:1;" stroke-width="1.86047" stroke-linecap="round" stroke-linejoin="round"/>
<path id="Vector_15" d="M203.535 127.125V164.335L190.679 156.911V119.702L203.535 127.125Z" stroke="var(--stroke-0, #565656)" style="stroke:#565656;stroke:color(display-p3 0.3390 0.3390 0.3390);stroke-opacity:1;" stroke-width="1.86047" stroke-linecap="round" stroke-linejoin="round"/>
<path id="Vector_16" d="M209.842 108.632L190.679 119.702V134.772L190.549 134.697V97.4878L209.842 108.632Z" stroke="var(--stroke-0, #565656)" style="stroke:#565656;stroke:color(display-p3 0.3390 0.3390 0.3390);stroke-opacity:1;" stroke-width="1.86047" stroke-linecap="round" stroke-linejoin="round"/>
<path id="Vector_17" d="M36.8 112.02V149.229L4.65118 130.661V93.4521L36.8 112.02Z" stroke="var(--stroke-0, #565656)" style="stroke:#565656;stroke:color(display-p3 0.3390 0.3390 0.3390);stroke-opacity:1;" stroke-width="1.86047" stroke-linecap="round" stroke-linejoin="round"/>
<path id="Vector_18" d="M49.581 104.631V141.841L36.7996 149.227V112.017L49.4508 104.706L49.581 104.631Z" stroke="var(--stroke-0, #565656)" style="stroke:#565656;stroke:color(display-p3 0.3390 0.3390 0.3390);stroke-opacity:1;" stroke-width="1.86047" stroke-linecap="round" stroke-linejoin="round"/>
<path id="Vector_19" d="M49.4509 82.4365V104.557L30.2881 93.5063L49.4509 82.4365Z" stroke="var(--stroke-0, #565656)" style="stroke:#565656;stroke:color(display-p3 0.3390 0.3390 0.3390);stroke-opacity:1;" stroke-width="1.86047" stroke-linecap="round" stroke-linejoin="round"/>
</g>
</svg>
