<svg preserveAspectRatio="none" width="100%" height="100%" overflow="visible" style="display: block;" viewBox="0 0 9.30233 9.30233" fill="none" xmlns="http://www.w3.org/2000/svg">
<g id="SVG">
<path id="Vector" d="M4.65133 0.581354C5.19102 0.581354 5.7086 0.795743 6.09021 1.17736C6.47183 1.55897 6.68622 2.07655 6.68622 2.61624V3.48833H8.13971V7.2674C8.13971 7.65289 7.98657 8.02259 7.71399 8.29517C7.44141 8.56775 7.07171 8.72089 6.68622 8.72089H2.61645L2.46529 8.71507C2.10756 8.67767 1.77641 8.50896 1.53586 8.24156C1.29531 7.97416 1.16245 7.62707 1.16296 7.2674V3.48833H2.61645V2.61624C2.61645 2.07655 2.83084 1.55897 3.21245 1.17736C3.59407 0.795743 4.11165 0.581354 4.65133 0.581354ZM2.03506 7.2674C2.03506 7.4216 2.09631 7.56948 2.20534 7.67851C2.31437 7.78754 2.46226 7.8488 2.61645 7.8488H6.68622C6.84041 7.8488 6.98829 7.78754 7.09733 7.67851C7.20636 7.56948 7.26761 7.4216 7.26761 7.2674V4.36042H2.03506V7.2674ZM4.65133 1.45345C4.34294 1.45345 4.04718 1.57595 3.82912 1.79402C3.61105 2.01209 3.48854 2.30785 3.48854 2.61624V3.48833H5.81413V2.61624C5.81413 2.30785 5.69162 2.01209 5.47355 1.79402C5.25549 1.57595 4.95973 1.45345 4.65133 1.45345Z" fill="var(--fill-0, #7D7D7D)" style="fill:#7D7D7D;fill:color(display-p3 0.4902 0.4902 0.4902);fill-opacity:1;"/>
</g>
</svg>
