<svg preserveAspectRatio="none" width="100%" height="100%" overflow="visible" style="display: block;" viewBox="0 0 192 192" fill="none" xmlns="http://www.w3.org/2000/svg">
<g id="Frame">
<path id="Vector" d="M119.568 126.74C119.775 126.796 120.001 126.853 120.208 126.909V126.363L119.568 126.74Z" stroke="var(--stroke-0, #565656)" style="stroke:#565656;stroke:color(display-p3 0.3390 0.3390 0.3390);stroke-opacity:1;" stroke-width="1.88235" stroke-linecap="round" stroke-linejoin="round"/>
<path id="Vector_2" d="M125.742 110.645V148.254C125.761 151.322 123.916 153.939 120.208 156.085V126.362L113.356 122.409L120.152 118.475C123.879 116.329 125.742 113.713 125.742 110.645Z" stroke="var(--stroke-0, #565656)" style="stroke:#565656;stroke:color(display-p3 0.3390 0.3390 0.3390);stroke-opacity:1;" stroke-width="1.88235" stroke-linecap="round" stroke-linejoin="round"/>
<path id="Vector_3" d="M86.1934 145.995V183.642L45.1396 159.924V122.277L64.0381 133.195L77.7228 141.101L86.1934 145.995Z" stroke="var(--stroke-0, #565656)" style="stroke:#565656;stroke:color(display-p3 0.3390 0.3390 0.3390);stroke-opacity:1;" stroke-width="1.88235" stroke-linecap="round" stroke-linejoin="round"/>
<path id="Vector_4" d="M139.502 99.0125V136.66C138.693 135.944 137.808 135.229 136.848 134.551C135.869 133.855 134.815 133.177 133.667 132.518C131.163 131.069 128.528 129.808 125.742 128.753V110.608C125.723 107.521 123.841 104.904 120.076 102.721C116.311 100.556 111.756 99.4641 106.41 99.4452C101.064 99.4452 96.5277 100.518 92.7818 102.683L85.9867 106.598L79.1348 102.645L45.1399 122.278V144.132L36.5562 149.083V111.436L65.4501 94.7393C74.9748 89.2429 86.3632 86.5323 99.615 86.5888C112.848 86.6452 124.218 89.4123 133.667 94.8711C134.815 95.5299 135.869 96.2076 136.848 96.904C137.808 97.5817 138.693 98.2972 139.502 99.0125Z" stroke="var(--stroke-0, #565656)" style="stroke:#565656;stroke:color(display-p3 0.3390 0.3390 0.3390);stroke-opacity:1;" stroke-width="1.88235" stroke-linecap="round" stroke-linejoin="round"/>
<path id="Vector_5" d="M36.5558 111.435V149.082C33.2617 148.48 30.0427 147.764 26.8992 146.955C23.7745 146.127 20.7253 145.186 17.77 144.131V106.484C20.7253 107.538 23.7745 108.48 26.8992 109.308C30.0427 110.117 33.2617 110.833 36.5558 111.435Z" stroke="var(--stroke-0, #565656)" style="stroke:#565656;stroke:color(display-p3 0.3390 0.3390 0.3390);stroke-opacity:1;" stroke-width="1.88235" stroke-linecap="round" stroke-linejoin="round"/>
<path id="Vector_6" d="M188.123 71.3414L167.661 83.1438L146.635 95.2849C145.506 95.9438 144.339 96.5838 143.153 97.2049C141.967 97.8261 140.744 98.4287 139.501 99.0122C138.692 98.2969 137.807 97.5814 136.847 96.9038C135.868 96.2073 134.814 95.5296 133.666 94.8708C124.217 89.412 112.847 86.6449 99.6143 86.5885C86.3625 86.532 74.9739 89.2428 65.4492 94.7392L36.5555 111.436C33.2614 110.833 30.0422 110.118 26.8986 109.309C23.7739 108.48 20.7249 107.539 17.7696 106.485C14.3249 103.172 11.5391 99.7463 9.41202 96.1887C5.96732 90.4851 4.25439 84.4802 4.25439 78.1743C4.25439 74.9179 4.70612 71.5675 5.62847 68.1604C9.412 54.0428 19.9155 42.0143 37.139 32.0755L78.6257 8.11328L153.77 27.9534L188.123 71.3414Z" fill="var(--fill-0, #262626)" stroke="var(--stroke-0, #565656)" style="fill:#262626;fill:color(display-p3 0.1490 0.1490 0.1490);fill-opacity:1;stroke:#565656;stroke:color(display-p3 0.3390 0.3390 0.3390);stroke-opacity:1;" stroke-width="1.88235" stroke-linecap="round" stroke-linejoin="round"/>
<path id="Vector_7" d="M17.77 106.485V144.132C8.69705 135.398 4.17954 125.891 4.25483 115.614V78.1738C4.25483 84.4797 5.96775 90.4846 9.41246 96.1881C11.5395 99.7458 14.3253 103.172 17.77 106.485Z" stroke="var(--stroke-0, #565656)" style="stroke:#565656;stroke:color(display-p3 0.3390 0.3390 0.3390);stroke-opacity:1;" stroke-width="1.88235" stroke-linecap="round" stroke-linejoin="round"/>
<path id="Vector_8" d="M188.123 71.3418V108.989L146.636 132.932C145.507 133.591 144.339 134.231 143.154 134.852C141.968 135.474 140.744 136.076 139.502 136.66V99.0126C140.744 98.429 141.968 97.8265 143.154 97.2053C144.339 96.5841 145.507 95.9441 146.636 95.2853L167.662 83.1441L188.123 71.3418Z" stroke="var(--stroke-0, #565656)" style="stroke:#565656;stroke:color(display-p3 0.3390 0.3390 0.3390);stroke-opacity:1;" stroke-width="1.88235" stroke-linecap="round" stroke-linejoin="round"/>
<path id="Vector_9" d="M120.207 126.907V164.009L86.1929 183.642V145.995L100.857 137.524L119.567 126.738C119.774 126.795 120 126.851 120.207 126.907Z" stroke="var(--stroke-0, #565656)" style="stroke:#565656;stroke:color(display-p3 0.3390 0.3390 0.3390);stroke-opacity:1;" stroke-width="1.88235" stroke-linecap="round" stroke-linejoin="round"/>
<path id="Vector_10" d="M120.076 102.721C116.311 100.556 111.756 99.4641 106.41 99.4453C101.064 99.4453 96.5275 100.518 92.7816 102.683L85.9865 106.598L79.1346 102.645L45.1396 122.278L64.0381 133.196L77.7228 141.102L86.1934 145.996L100.857 137.525L119.568 126.739L120.208 126.363L113.356 122.41L120.151 118.476C123.878 116.33 125.742 113.713 125.742 110.645V110.607C125.723 107.52 123.84 104.904 120.076 102.721ZM113.318 114.523L106.523 118.457L92.8193 110.551L99.6336 106.617C101.554 105.506 103.831 104.96 106.448 104.96C109.064 104.96 111.342 105.525 113.281 106.655C115.219 107.765 116.18 109.083 116.198 110.589C116.198 112.095 115.238 113.412 113.318 114.523Z" stroke="var(--stroke-0, #565656)" style="stroke:#565656;stroke:color(display-p3 0.3390 0.3390 0.3390);stroke-opacity:1;" stroke-width="1.88235" stroke-linecap="round" stroke-linejoin="round"/>
<path id="Vector_11" d="M116.198 110.589C116.198 112.095 115.238 113.413 113.318 114.523L106.522 118.458L92.8188 110.552L99.6332 106.617C101.553 105.507 103.83 104.961 106.447 104.961C109.063 104.961 111.341 105.526 113.28 106.655C115.219 107.766 116.179 109.083 116.198 110.589Z" stroke="var(--stroke-0, #565656)" style="stroke:#565656;stroke:color(display-p3 0.3390 0.3390 0.3390);stroke-opacity:1;" stroke-width="1.88235" stroke-linecap="round" stroke-linejoin="round"/>
</g>
</svg>
