<svg preserveAspectRatio="none" width="100%" height="100%" overflow="visible" style="display: block;" viewBox="0 0 103.2 32.0002" fill="none" xmlns="http://www.w3.org/2000/svg">
<g id="logotype">
<path id="Vector" fill-rule="evenodd" clip-rule="evenodd" d="M27.7061 9.99634C27.7061 11.4426 27.7061 12.7082 27.7061 13.8835V20.5736C27.7061 21.7488 27.7061 23.0144 27.7061 24.4607C26.8607 25.4274 26.1573 26.2383 25.5008 26.9993C24.8443 27.7595 24.2353 28.4699 23.5802 29.2375C22.9252 30.0058 22.2233 30.8321 21.3823 31.8311C21.0214 31.8979 20.8414 31.9317 20.4813 32C19.581 31.2677 19.1309 30.9041 18.2321 30.1843C18.7715 29.5312 19.1763 29.0443 19.581 28.558C19.9858 28.0717 20.3913 27.5869 20.9314 26.9427C21.8325 27.678 22.2833 28.0482 23.1857 28.7959C23.5466 28.3722 23.7273 28.1599 24.0882 27.7383V24.8001C24.0882 23.9187 24.0882 23.0372 24.0882 21.8619C23.5466 22.4951 23.1404 22.9726 22.7341 23.4507C22.3279 23.929 21.9225 24.4086 21.3816 25.0506C21.0207 25.1175 20.8407 25.1512 20.4805 25.2195C19.8504 24.7068 19.3776 24.3249 18.9055 23.9451C18.4334 23.5654 17.9613 23.1863 17.3333 22.6861C17.3333 21.6615 17.3333 20.8079 17.3333 20.011V17.6773C17.3333 16.8803 17.3333 16.0268 17.3333 15.0022C18.1713 13.9819 18.8704 13.1379 19.524 12.3535C20.1776 11.569 20.7843 10.8439 21.4386 10.0668C22.093 9.28969 22.7941 8.46113 23.6366 7.4739C23.9974 7.4122 24.1782 7.38209 24.5398 7.32259C25.1721 7.85146 25.6472 8.25105 26.1215 8.65209C26.5957 9.05313 27.0722 9.4557 27.7061 9.99634ZM20.9314 11.5741V20.1623C21.8325 20.8975 22.2833 21.2677 23.1857 22.0155C23.5466 21.5917 23.7273 21.3801 24.0882 20.9578V12.3696C23.185 11.6167 22.7341 11.2435 21.8325 10.5039C21.4716 10.9314 21.2915 11.1451 20.9314 11.5741Z" fill="var(--fill-0, #0A0A0A)" style="fill:#0A0A0A;fill:color(display-p3 0.0392 0.0392 0.0392);fill-opacity:1;"/>
<path id="Vector_2" fill-rule="evenodd" clip-rule="evenodd" d="M48.6339 7.84625C49.1813 7.29389 49.592 6.88255 50.0025 6.47121C50.4132 6.05987 50.8238 5.65073 51.3713 5.10791C51.7365 5.10791 51.9187 5.10791 52.284 5.10938C52.9229 5.74475 53.4016 6.22441 53.881 6.70553C54.3604 7.18665 54.8391 7.66923 55.4781 8.31708C55.4781 9.3418 55.4781 10.1953 55.4781 10.9923V16.0011C54.6876 16.7664 54.0281 17.4092 53.4133 18.0115C52.7985 18.6138 52.2269 19.1772 51.6121 19.7861C50.9973 20.3958 50.3378 21.051 49.5466 21.8443C49.1813 21.4873 48.9991 21.3088 48.6339 20.954C48.6339 22.4004 48.6339 23.1239 48.6339 24.5701C49.1813 25.1027 49.4551 25.37 50.0025 25.9077C49.3636 26.5468 48.8849 27.0286 48.4055 27.5127C47.9261 27.9968 47.4474 28.4816 46.8085 29.1331C46.1695 28.5183 45.6909 28.0607 45.2121 27.6045C44.7335 27.1484 44.2548 26.6937 43.6165 26.0914C44.1641 25.5228 44.437 25.2393 44.9845 24.6752C44.9845 23.3368 44.9845 22.1329 44.9845 21.0091V11.6166C44.9845 10.4928 44.9845 9.28892 44.9845 7.95056C44.6201 7.60313 44.437 7.43051 44.0725 7.08528C44.8023 6.32871 45.1668 5.95262 45.8965 5.20487C46.6262 5.17989 46.9914 5.16961 47.7212 5.15198C48.0864 5.50529 48.2686 5.68232 48.6339 6.03709V7.84625ZM48.6339 8.75044C48.6339 9.89564 48.6339 10.8498 48.6339 11.7408V17.3394C49.5465 18.2274 50.0025 18.674 50.9153 19.5746C51.2805 19.2117 51.4628 19.0303 51.828 18.6696V10.0815C50.9153 9.17652 50.4593 8.727 49.5466 7.83377C49.1813 8.19956 48.9991 8.38172 48.6339 8.75044Z" fill="var(--fill-0, #0A0A0A)" style="fill:#0A0A0A;fill:color(display-p3 0.0392 0.0392 0.0392);fill-opacity:1;"/>
<path id="Vector_3" d="M70.5058 7.08896C70.5058 8.26421 70.5058 9.29253 70.5058 10.2475C70.5058 11.2024 70.5058 12.0838 70.5058 12.9653V18.8415C71.0503 19.4461 71.3234 19.7494 71.8679 20.3591C72.957 19.4078 73.5008 18.937 74.5884 18.0034V9.41525C74.2262 9.00317 74.0446 8.79749 73.6816 8.38765C74.407 7.76179 74.7692 7.45035 75.4938 6.83261C76.2184 6.93765 76.58 6.992 77.3038 7.10512C77.6654 7.52307 77.847 7.73315 78.2085 8.15333C78.2085 9.44901 78.2085 10.6368 78.2085 11.7525V23.9906C78.2085 25.1064 78.2085 26.2941 78.2085 27.5898C78.5701 28.01 78.7509 28.2208 79.1117 28.6425C80.0151 27.8895 80.4663 27.5164 81.3679 26.7767C81.9087 27.4172 82.3143 27.9005 82.7191 28.3846C83.1247 28.8686 83.5295 29.3534 84.0687 30.0035C83.1695 30.7284 82.7191 31.0943 81.8175 31.8317C81.4575 31.7649 81.2767 31.7326 80.9167 31.668C80.0751 30.6734 79.373 29.8507 78.7172 29.0861C78.0614 28.3214 77.4517 27.6148 76.7952 26.8582C76.1386 26.1017 75.4346 25.2936 74.5884 24.3321V18.9077C73.5915 19.7633 72.8435 20.412 72.0948 21.0649C71.346 21.718 70.5973 22.3746 69.5974 23.2605C69.2337 23.2209 69.0522 23.2017 68.6884 23.1643C68.0524 22.4657 67.5745 21.9449 67.0972 21.4256C66.62 20.9063 66.1421 20.3885 65.5046 19.7024C66.0506 19.2058 66.3236 18.9583 66.8696 18.4661V11.9839C66.8696 10.9526 66.8696 9.84789 66.8696 8.52205C66.5058 8.12685 66.3236 7.93 65.9598 7.53703C66.6881 6.87668 67.0518 6.54908 67.7794 5.89681C68.5069 5.96807 68.8706 6.00552 69.5974 6.08486C69.9612 6.48591 70.1427 6.68571 70.5058 7.08896Z" fill="var(--fill-0, #0A0A0A)" style="fill:#0A0A0A;fill:color(display-p3 0.0392 0.0392 0.0392);fill-opacity:1;"/>
<path id="Vector_4" d="M4.8497 7.28888C4.8497 8.66321 4.8497 9.89945 4.8497 11.0541C4.8497 12.2081 4.8497 13.2805 4.8497 14.3243V17.4299C4.8497 18.4743 4.8497 19.5461 4.8497 20.7V24.4652C5.38034 24.8523 5.64603 25.047 6.17814 25.4385C5.55747 26.2472 5.0927 26.8569 4.62866 27.468C4.1639 28.0791 3.69986 28.6918 3.08211 29.513C2.46438 29.0686 2.0018 28.738 1.53923 28.409C1.07666 28.0799 0.614813 27.7531 0 27.3203C0.526982 26.6064 0.791206 26.2502 1.31965 25.5399V19.2449C1.31965 18.3106 1.31965 17.4005 1.31965 16.4662C1.31965 15.5319 1.31965 14.5725 1.31965 13.5398C1.31965 12.5071 1.31965 11.4001 1.31965 10.1712C0.9676 9.92145 0.791206 9.79657 0.439884 9.54833C1.14326 8.59785 1.49531 8.12481 2.20088 7.18237C2.90646 6.96348 3.25924 6.8555 3.96627 6.64469C4.31979 6.90105 4.49692 7.02885 4.85043 7.28741L4.8497 7.28888Z" fill="var(--fill-0, #0A0A0A)" style="fill:#0A0A0A;fill:color(display-p3 0.0392 0.0392 0.0392);fill-opacity:1;"/>
<path id="Vector_5" fill-rule="evenodd" clip-rule="evenodd" d="M16.8854 11.9332C16.8854 12.9579 16.8854 13.8114 16.8854 14.6084V19.6172C16.0481 20.6396 15.3506 21.4976 14.7006 22.3019C14.0506 23.1062 13.4475 23.8562 12.799 24.6678C12.1506 25.4795 11.456 26.3528 10.6238 27.4084C10.2674 27.4988 10.0888 27.545 9.73304 27.6376C9.10944 27.0764 8.64248 26.6584 8.17624 26.242C7.71003 25.8255 7.24307 25.4112 6.6224 24.8617V17.6296C7.4502 16.5534 8.14112 15.6624 8.78744 14.8346C9.43296 14.0068 10.0331 13.2407 10.6802 12.4209C11.3272 11.6004 12.021 10.7249 12.8554 9.68116C13.2126 9.59588 13.3919 9.55332 13.7498 9.46956C14.3764 9.95588 14.8462 10.3239 15.3169 10.6933C15.7875 11.0628 16.2582 11.4337 16.8861 11.9324L16.8854 11.9332ZM10.1781 13.9612V22.5494C11.0688 23.2244 11.5153 23.5653 12.4082 24.2528C12.7654 23.8048 12.944 23.5808 13.3019 23.1348C13.3019 21.9897 13.3019 21.0356 13.3019 20.1446V17.5362C13.3019 16.6452 13.3019 15.6911 13.3019 14.546C12.4075 13.8533 11.961 13.5103 11.0695 12.83C10.7131 13.2811 10.5345 13.508 10.1781 13.9612Z" fill="var(--fill-0, #0A0A0A)" style="fill:#0A0A0A;fill:color(display-p3 0.0392 0.0392 0.0392);fill-opacity:1;"/>
<path id="Vector_6" fill-rule="evenodd" clip-rule="evenodd" d="M38.6061 16.4638C37.7563 17.3739 37.0486 18.1385 36.3884 18.8555C35.7282 19.5724 35.1148 20.2416 34.4554 20.9665C33.7959 21.6915 33.0889 22.4709 32.2413 23.414C31.8782 23.4566 31.6968 23.4786 31.3338 23.5227C30.6984 22.8778 30.2226 22.3967 29.7462 21.917C29.2697 21.4373 28.7947 20.9599 28.1602 20.3268V13.0945C29.0055 12.1308 29.7103 11.3331 30.369 10.592C31.0278 9.85085 31.639 9.16621 32.2984 8.43317C32.9578 7.7001 33.6642 6.91782 34.5125 5.98643C34.8762 5.94896 35.0578 5.9306 35.4215 5.89535C36.0582 6.46607 36.5355 6.89725 37.0134 7.32989C37.4914 7.76253 37.9693 8.19661 38.6061 8.77909V16.4638ZM31.7868 9.90741V18.4956C32.6944 19.291 33.1489 19.6914 34.0572 20.4993C34.421 20.099 34.6025 19.9 34.9662 19.5019V10.9136C34.0572 10.1012 33.6026 9.69805 32.6944 8.89741C32.3314 9.30061 32.1498 9.50189 31.7868 9.90741Z" fill="var(--fill-0, #0A0A0A)" style="fill:#0A0A0A;fill:color(display-p3 0.0392 0.0392 0.0392);fill-opacity:1;"/>
<path id="Vector_7" d="M43.161 6.22601V17.9786C43.7078 18.4935 43.9814 18.7513 44.529 19.2706C43.8907 19.931 43.4121 20.429 42.9334 20.9284C42.4547 21.4279 41.976 21.9289 41.3385 22.6017C40.7003 22.0083 40.2223 21.566 39.7444 21.126C39.2665 20.6853 38.7878 20.2468 38.151 19.6658C38.697 19.0789 38.9707 18.7866 39.5168 18.2048V8.25994C39.1522 7.92499 38.97 7.75751 38.6062 7.42477C39.3345 6.6447 39.699 6.25613 40.428 5.48413C41.157 5.43492 41.5215 5.41288 42.2505 5.37174C42.615 5.71257 42.7972 5.88372 43.1625 6.22674L43.161 6.22601Z" fill="var(--fill-0, #0A0A0A)" style="fill:#0A0A0A;fill:color(display-p3 0.0392 0.0392 0.0392);fill-opacity:1;"/>
<path id="Vector_8" d="M65.5044 7.94989C64.9584 8.44643 64.5485 8.82107 64.1386 9.19715C63.7288 9.57323 63.3188 9.95003 62.7721 10.4554C61.8608 9.49019 61.4056 9.01059 60.4937 8.05787C60.1292 8.40019 59.9469 8.57131 59.5817 8.91579V14.7921C60.3114 14.1038 60.8581 13.5919 61.4049 13.0814C61.9516 12.5708 62.4984 12.0633 63.2274 11.3912C64.1386 11.4551 64.5939 11.4903 65.5036 11.566C65.8674 11.9583 66.0496 12.1551 66.4134 12.5488V16.6167C65.5644 17.3843 64.8559 18.0307 64.195 18.6367C63.5341 19.2427 62.92 19.809 62.2583 20.423C61.5967 21.0371 60.8881 21.6982 60.0369 22.4988C59.6725 22.4804 59.4902 22.4716 59.1249 22.4547C58.213 21.5094 57.757 21.04 56.845 20.1071C57.3925 19.5819 57.8031 19.1905 58.213 18.7997C58.6236 18.4089 59.0335 18.0196 59.5809 17.5039C60.4929 18.4515 60.9489 18.929 61.8601 19.889C62.2246 19.5496 62.4069 19.3807 62.7714 19.0435V12.7155C62.1339 13.3054 61.6552 13.7512 61.1765 14.1979C60.6979 14.6444 60.2192 15.0932 59.5809 15.6955C58.4868 15.6427 57.9393 15.6214 56.845 15.5868C56.4798 15.2137 56.2976 15.0279 55.9323 14.6562V11.4918C56.7836 10.6706 57.4935 9.99187 58.1552 9.36171C58.8176 8.73147 59.4316 8.14971 60.094 7.52754C60.7556 6.90539 61.4649 6.24136 62.3154 5.45247C62.6799 5.47598 62.8621 5.48847 63.2266 5.51344C64.1379 6.48156 64.5932 6.96855 65.5029 7.94843L65.5044 7.94989Z" fill="var(--fill-0, #0A0A0A)" style="fill:#0A0A0A;fill:color(display-p3 0.0392 0.0392 0.0392);fill-opacity:1;"/>
<path id="Vector_9" d="M83.6191 9.12076V12.7368C84.5183 12.0089 85.1927 11.4698 85.8663 10.9336C86.5391 10.3974 87.2119 9.86412 88.1079 9.16116C88.4663 9.24196 88.6455 9.28236 89.0039 9.36532C89.6303 10.1425 90.0991 10.7287 90.5687 11.3163C91.0375 11.9039 91.5063 12.493 92.1303 13.2826C92.7551 12.8067 93.2223 12.4526 93.6903 12.1C94.1575 11.7475 94.6247 11.3964 95.2463 10.9328C95.6015 11.0291 95.7791 11.0783 96.1343 11.1767C96.7551 11.9818 97.2207 12.5892 97.6855 13.1981C98.1503 13.8071 98.6151 14.4168 99.2343 15.235C98.7039 15.6192 98.4383 15.8124 97.9071 16.2002V24.3366C98.4383 25.033 98.7039 25.3826 99.2343 26.0834C98.6159 26.5314 98.1511 26.8708 97.6855 27.2108C97.2199 27.551 96.7551 27.8932 96.1343 28.3538C95.5127 27.5488 95.0463 26.9472 94.5791 26.3478C94.1127 25.7484 93.6455 25.1505 93.0215 24.3572C93.5567 23.9524 93.8239 23.7512 94.3575 23.3501V15.2137C93.8231 14.5292 93.5559 14.1883 93.0215 13.5081C92.1311 14.1832 91.6855 14.524 90.7919 15.2115V22.4437C91.3271 23.1159 91.5951 23.453 92.1303 24.1302C91.5063 24.6062 91.0375 24.9661 90.5687 25.3283C90.0991 25.6896 89.6303 26.0532 89.0039 26.5417C88.3775 25.7646 87.9063 25.1843 87.4359 24.6062C86.9655 24.0281 86.4943 23.4508 85.8663 22.6861C86.4047 22.2572 86.6743 22.0434 87.2119 21.6188V18.7865C87.2119 17.9425 87.2119 17.1595 87.2119 16.3156V13.4832C86.6743 12.8228 86.4047 12.4937 85.8663 11.8378C84.9679 12.5532 84.5183 12.9139 83.6191 13.6411V20.8733C84.1591 21.5219 84.4287 21.8466 84.9679 22.4996C84.3391 23.0035 83.8663 23.3847 83.3943 23.7674C82.9215 24.15 82.4495 24.5342 81.8183 25.0506C81.1871 24.3014 80.7143 23.7424 80.2407 23.1849C79.7668 22.6274 79.2926 22.0713 78.6602 21.3346C79.2026 20.8814 79.4734 20.6559 80.0151 20.2078V16.746C80.0151 15.7147 80.0151 14.7568 80.0151 13.7256V10.2637C79.6542 9.83916 79.4734 9.62756 79.1118 9.20596C79.8342 8.60364 80.1951 8.30468 80.9167 7.71045C81.6383 7.83973 81.9983 7.90583 82.7191 8.04316C83.0791 8.47364 83.2599 8.68884 83.6191 9.12076Z" fill="var(--fill-0, #0A0A0A)" style="fill:#0A0A0A;fill:color(display-p3 0.0392 0.0392 0.0392);fill-opacity:1;"/>
<path id="Vector_10" d="M103.2 12.8573C102.137 13.5955 101.605 13.9694 100.538 14.7259C100.013 14.0215 99.6182 13.4963 99.2238 12.9711C98.8294 12.4459 98.4342 11.923 97.9062 11.2274C98.9614 10.448 99.4878 10.0631 100.538 9.30143C101.072 10.008 101.471 10.5398 101.871 11.0731C102.269 11.6064 102.669 12.1418 103.2 12.8573Z" fill="var(--fill-0, #0A0A0A)" style="fill:#0A0A0A;fill:color(display-p3 0.0392 0.0392 0.0392);fill-opacity:1;"/>
<path id="Vector_11" d="M44.0937 2.56499C43.356 3.32157 42.9871 3.70206 42.2501 4.4667C41.5211 4.50784 41.1565 4.53061 40.4276 4.57909C39.7066 3.90405 39.3465 3.5691 38.6263 2.90214C39.1687 2.31746 39.5756 1.88114 39.9825 1.44557C40.3895 1.00998 40.7965 0.575875 41.3388 0C41.89 0.508298 42.3028 0.891728 42.7163 1.27662C43.1298 1.66152 43.5419 2.04714 44.0937 2.56499Z" fill="var(--fill-0, #0A0A0A)" style="fill:#0A0A0A;fill:color(display-p3 0.0392 0.0392 0.0392);fill-opacity:1;"/>
</g>
</svg>
