<svg preserveAspectRatio="none" width="100%" height="100%" overflow="visible" style="display: block;" viewBox="0 0 33.6 24" fill="none" xmlns="http://www.w3.org/2000/svg">
<g id="logogram">
<path id="Vector" d="M25.8 0C30.1078 3.86566e-07 33.6 3.49218 33.6 7.8C33.6 12.1078 30.1078 15.6 25.8 15.6H20.6906L29.0906 24H18.9094L9.45468 14.5453C8.8032 13.8938 8.4 12.9941 8.4 12C8.4 10.0118 10.0118 8.4 12 8.4H25.8C26.1314 8.4 26.4 8.13138 26.4 7.8C26.4 7.46862 26.1314 7.2 25.8 7.2H12C9.34902 7.2 7.2 9.34902 7.2 12C7.2 13.4341 7.82892 14.7208 8.826 15.6H8.8125L17.2125 24H12C5.37259 24 0 18.6274 0 12C0 5.37259 5.37258 0 12 0H25.8Z" fill="var(--fill-0, #0A0A0A)" style="fill:#0A0A0A;fill:color(display-p3 0.0392 0.0392 0.0392);fill-opacity:1;"/>
<path id="Vector_2" d="M33.5997 16.8V24H30.7872L23.5872 16.8H33.5997Z" fill="var(--fill-0, #0A0A0A)" style="fill:#0A0A0A;fill:color(display-p3 0.0392 0.0392 0.0392);fill-opacity:1;"/>
</g>
</svg>
